<svg width="151" height="102" viewBox="0 0 151 102" fill="none" xmlns="http://www.w3.org/2000/svg">
<path d="M32.696 43.1063C18.6223 45.3385 1.36408 70.7355 1.36408 70.7355L1.24146 101.642L150.463 102.234L150.724 36.6363C150.724 36.6363 139.126 44.4478 131.412 43.498C115.738 41.568 117.717 5.49883 102.192 1.75189C81.5719 -3.22466 81.4938 50.3546 60.6653 52.931C49.4774 54.3149 43.8609 41.3356 32.696 43.1063Z" fill="url(#paint0_linear_614_15204)"/>
<path d="M1.36408 70.7355C1.36408 70.7355 18.6223 45.3385 32.696 43.1063C43.8609 41.3356 49.4774 54.3149 60.6653 52.931C81.4938 50.3546 81.5719 -3.22466 102.192 1.75189C117.717 5.49883 115.738 41.568 131.412 43.498C139.126 44.4478 150.724 36.6363 150.724 36.6363" stroke="#E37592" strokeLinecap="round"/>
<defs>
<linearGradient id="paint0_linear_614_15204" x1="76.2516" y1="1.33314" x2="75.8524" y2="101.938" gradientUnits="userSpaceOnUse">
<stop stopColor="#FF6C95"/>
<stop offset="1" stopColor="#FBEBD6" stop-opacity="0"/>
</linearGradient>
</defs>
</svg>
